<svg xmlns="http://www.w3.org/2000/svg" version="1.1" xmlns:xlink="http://www.w3.org/1999/xlink" xmlns:svgjs="http://svgjs.dev/svgjs" viewBox="0 0 800 800"><defs><linearGradient x1="50%" y1="0%" x2="50%" y2="100%" id="ffflurry-grad" gradientTransform="rotate(270)"><stop stop-color="hsl(238, 82%, 13%)" stop-opacity="1" offset="0%"></stop><stop stop-color="hsl(162, 100%, 58%)" stop-opacity="1" offset="45%"></stop><stop stop-color="hsl(270, 73%, 53%)" stop-opacity="1" offset="100%"></stop></linearGradient></defs><rect width="100%" height="100%" fill="hsl(238, 82%, 13%)"></rect><g fill="url(#ffflurry-grad)"><rect width="266" height="3" x="530" y="663.5" rx="1.5" transform="rotate(45, 663, 665)" opacity="0.16"></rect><rect width="184" height="3" x="-58" y="448.5" rx="1.5" transform="rotate(45, 34, 450)" opacity="0.64"></rect><rect width="402" height="3" x="-28" y="643.5" rx="1.5" transform="rotate(45, 173, 645)" opacity="0.91"></rect><rect width="109" height="3" x="196.5" y="198.5" rx="1.5" transform="rotate(45, 251, 200)" opacity="0.55"></rect><rect width="428" height="3" x="177" y="719.5" rx="1.5" transform="rotate(45, 391, 721)" opacity="0.16"></rect><rect width="469" height="3" x="-192.5" y="555.5" rx="1.5" transform="rotate(45, 42, 557)" opacity="0.72"></rect><rect width="220" height="3" x="-15" y="460.5" rx="1.5" transform="rotate(45, 95, 462)" opacity="0.14"></rect><rect width="301" height="3" x="57.5" y="57.5" rx="1.5" transform="rotate(45, 208, 59)" opacity="0.52"></rect><rect width="349" height="3" x="-63.5" y="400.5" rx="1.5" transform="rotate(45, 111, 402)" opacity="0.16"></rect><rect width="440" height="3" x="-84" y="563.5" rx="1.5" transform="rotate(45, 136, 565)" opacity="0.62"></rect><rect width="73" height="3" x="553.5" y="493.5" rx="1.5" transform="rotate(45, 590, 495)" opacity="0.43"></rect><rect width="484" height="3" x="248" y="740.5" rx="1.5" transform="rotate(45, 490, 742)" opacity="0.78"></rect><rect width="472" height="3" x="505" y="452.5" rx="1.5" transform="rotate(45, 741, 454)" opacity="0.17"></rect><rect width="380" height="3" x="-154" y="144.5" rx="1.5" transform="rotate(45, 36, 146)" opacity="0.11"></rect><rect width="333" height="3" x="590.5" y="536.5" rx="1.5" transform="rotate(45, 757, 538)" opacity="0.36"></rect><rect width="354" height="3" x="473" y="438.5" rx="1.5" transform="rotate(45, 650, 440)" opacity="0.50"></rect><rect width="256" height="3" x="457" y="316.5" rx="1.5" transform="rotate(45, 585, 318)" opacity="0.69"></rect><rect width="260" height="3" x="315" y="69.5" rx="1.5" transform="rotate(45, 445, 71)" opacity="0.60"></rect><rect width="286" height="3" x="461" y="242.5" rx="1.5" transform="rotate(45, 604, 244)" opacity="0.73"></rect><rect width="348" height="3" x="257" y="214.5" rx="1.5" transform="rotate(45, 431, 216)" opacity="0.48"></rect><rect width="293" height="3" x="36.5" y="769.5" rx="1.5" transform="rotate(45, 183, 771)" opacity="0.88"></rect><rect width="580" height="3" x="-32" y="302.5" rx="1.5" transform="rotate(45, 258, 304)" opacity="0.39"></rect><rect width="305" height="3" x="-19.5" y="24.5" rx="1.5" transform="rotate(45, 133, 26)" opacity="0.39"></rect><rect width="599" height="3" x="350.5" y="566.5" rx="1.5" transform="rotate(45, 650, 568)" opacity="0.45"></rect><rect width="286" height="3" x="431" y="668.5" rx="1.5" transform="rotate(45, 574, 670)" opacity="0.19"></rect><rect width="120" height="3" x="84" y="162.5" rx="1.5" transform="rotate(45, 144, 164)" opacity="0.87"></rect><rect width="361" height="3" x="27.5" y="372.5" rx="1.5" transform="rotate(45, 208, 374)" opacity="0.13"></rect><rect width="321" height="3" x="-75.5" y="196.5" rx="1.5" transform="rotate(45, 85, 198)" opacity="0.80"></rect><rect width="746" height="3" x="-22" y="99.5" rx="1.5" transform="rotate(45, 351, 101)" opacity="0.45"></rect><rect width="270" height="3" x="600" y="46.5" rx="1.5" transform="rotate(45, 735, 48)" opacity="0.29"></rect><rect width="771" height="3" x="362.5" y="735.5" rx="1.5" transform="rotate(45, 748, 737)" opacity="0.93"></rect><rect width="435" height="3" x="76.5" y="652.5" rx="1.5" transform="rotate(45, 294, 654)" opacity="0.58"></rect><rect width="191" height="3" x="569.5" y="156.5" rx="1.5" transform="rotate(45, 665, 158)" opacity="0.95"></rect><rect width="227" height="3" x="239.5" y="429.5" rx="1.5" transform="rotate(45, 353, 431)" opacity="0.37"></rect><rect width="309" height="3" x="471.5" y="54.5" rx="1.5" transform="rotate(45, 626, 56)" opacity="0.77"></rect><rect width="378" height="3" x="-47" y="332.5" rx="1.5" transform="rotate(45, 142, 334)" opacity="0.60"></rect><rect width="662" height="3" x="421" y="627.5" rx="1.5" transform="rotate(45, 752, 629)" opacity="0.40"></rect><rect width="491" height="3" x="-149.5" y="282.5" rx="1.5" transform="rotate(45, 96, 284)" opacity="0.40"></rect><rect width="200" height="3" x="-65" y="313.5" rx="1.5" transform="rotate(45, 35, 315)" opacity="0.29"></rect><rect width="66" height="3" x="172" y="506.5" rx="1.5" transform="rotate(45, 205, 508)" opacity="0.87"></rect><rect width="284" height="3" x="132" y="487.5" rx="1.5" transform="rotate(45, 274, 489)" opacity="0.28"></rect><rect width="338" height="3" x="247" y="530.5" rx="1.5" transform="rotate(45, 416, 532)" opacity="0.48"></rect><rect width="41" height="3" x="210.5" y="702.5" rx="1.5" transform="rotate(45, 231, 704)" opacity="0.33"></rect><rect width="585" height="3" x="214.5" y="192.5" rx="1.5" transform="rotate(45, 507, 194)" opacity="0.25"></rect><rect width="141" height="3" x="-6.5" y="372.5" rx="1.5" transform="rotate(45, 64, 374)" opacity="0.30"></rect><rect width="698" height="3" x="379" y="350.5" rx="1.5" transform="rotate(45, 728, 352)" opacity="0.71"></rect><rect width="457" height="3" x="304.5" y="47.5" rx="1.5" transform="rotate(45, 533, 49)" opacity="0.95"></rect><rect width="410" height="3" x="369" y="148.5" rx="1.5" transform="rotate(45, 574, 150)" opacity="0.36"></rect><rect width="259" height="3" x="31.5" y="243.5" rx="1.5" transform="rotate(45, 161, 245)" opacity="0.63"></rect><rect width="127" height="3" x="70.5" y="498.5" rx="1.5" transform="rotate(45, 134, 500)" opacity="0.74"></rect><rect width="198" height="3" x="-14" y="72.5" rx="1.5" transform="rotate(45, 85, 74)" opacity="0.38"></rect><rect width="178" height="3" x="417" y="497.5" rx="1.5" transform="rotate(45, 506, 499)" opacity="0.92"></rect><rect width="489" height="3" x="390.5" y="759.5" rx="1.5" transform="rotate(45, 635, 761)" opacity="0.40"></rect><rect width="105" height="3" x="369.5" y="393.5" rx="1.5" transform="rotate(45, 422, 395)" opacity="0.72"></rect><rect width="495" height="3" x="-179.5" y="631.5" rx="1.5" transform="rotate(45, 68, 633)" opacity="1.00"></rect><rect width="282" height="3" x="165" y="759.5" rx="1.5" transform="rotate(45, 306, 761)" opacity="0.79"></rect><rect width="133" height="3" x="241.5" y="550.5" rx="1.5" transform="rotate(45, 308, 552)" opacity="0.30"></rect><rect width="49" height="3" x="114.5" y="102.5" rx="1.5" transform="rotate(45, 139, 104)" opacity="0.30"></rect><rect width="179" height="3" x="-72.5" y="370.5" rx="1.5" transform="rotate(45, 17, 372)" opacity="0.52"></rect><rect width="663" height="3" x="394.5" y="252.5" rx="1.5" transform="rotate(45, 726, 254)" opacity="0.21"></rect><rect width="112" height="3" x="414" y="318.5" rx="1.5" transform="rotate(45, 470, 320)" opacity="0.91"></rect><rect width="39" height="3" x="12.5" y="44.5" rx="1.5" transform="rotate(45, 32, 46)" opacity="0.93"></rect><rect width="131" height="3" x="211.5" y="411.5" rx="1.5" transform="rotate(45, 277, 413)" opacity="0.37"></rect><rect width="40" height="3" x="740" y="148.5" rx="1.5" transform="rotate(45, 760, 150)" opacity="0.67"></rect><rect width="333" height="3" x="-37.5" y="717.5" rx="1.5" transform="rotate(45, 129, 719)" opacity="0.27"></rect><rect width="238" height="3" x="-82" y="491.5" rx="1.5" transform="rotate(45, 37, 493)" opacity="0.96"></rect><rect width="227" height="3" x="-86.5" y="417.5" rx="1.5" transform="rotate(45, 27, 419)" opacity="0.70"></rect><rect width="53" height="3" x="5.5" y="239.5" rx="1.5" transform="rotate(45, 32, 241)" opacity="0.42"></rect><rect width="381" height="3" x="48.5" y="121.5" rx="1.5" transform="rotate(45, 239, 123)" opacity="0.22"></rect><rect width="184" height="3" x="293" y="622.5" rx="1.5" transform="rotate(45, 385, 624)" opacity="0.77"></rect><rect width="480" height="3" x="-17" y="587.5" rx="1.5" transform="rotate(45, 223, 589)" opacity="0.51"></rect><rect width="374" height="3" x="163" y="264.5" rx="1.5" transform="rotate(45, 350, 266)" opacity="0.59"></rect><rect width="579" height="3" x="-244.5" y="736.5" rx="1.5" transform="rotate(45, 45, 738)" opacity="0.09"></rect><rect width="162" height="3" x="466" y="399.5" rx="1.5" transform="rotate(45, 547, 401)" opacity="0.29"></rect><rect width="249" height="3" x="50.5" y="435.5" rx="1.5" transform="rotate(45, 175, 437)" opacity="0.41"></rect><rect width="177" height="3" x="420.5" y="604.5" rx="1.5" transform="rotate(45, 509, 606)" opacity="0.77"></rect><rect width="213" height="3" x="170.5" y="27.5" rx="1.5" transform="rotate(45, 277, 29)" opacity="0.88"></rect></g></svg>